<?xml version="1.0" encoding="utf-8"?>
<!-- Generator: Adobe Illustrator 18.0.0, SVG Export Plug-In . SVG Version: 6.00 Build 0)  -->
<!DOCTYPE svg PUBLIC "-//W3C//DTD SVG 1.1//EN" "http://www.w3.org/Graphics/SVG/1.1/DTD/svg11.dtd">
<svg version="1.1" id="Layer_1" xmlns="http://www.w3.org/2000/svg" xmlns:xlink="http://www.w3.org/1999/xlink" x="0px" y="0px"
	 viewBox="0 0 150 150" enable-background="new 0 0 150 150" xml:space="preserve">
<path d="M142.4,78.1l-57.9,57.9c-5.2,5.2-13.7,5.2-18.9,0L7.5,77.8c-2-2-2-5.2,0-7.1l0.4-0.4c2.4-2.4,6.2-2.4,8.6,0l51.1,51.1
	c0.6,0.6,1.7,0.2,1.7-0.7V10.5c0-2.7,2.2-5,5-5h1c3.1,0,5.7,2.5,5.7,5.7v109.4c0,0.9,1.1,1.4,1.7,0.7l51-51c2.4-2.4,6.3-2.4,8.8,0
	l0,0C144.5,72.5,144.5,75.9,142.4,78.1z"/>
</svg>
